# xmcd
#
# Track frame offsets:
#	150
#	10193
#	24088
#	36760
#	48908
#	61138
#	74933
#	87685
#	100148
#	113173
#	129445
#	142338
#	154348
#	164468
#
# Disc length: 2374 seconds
#
# Revision: 0
# Processed by: cddbd v1.5.2PL0 Copyright (c) Steve Scherf et al.
# Submitted via: audiograbber 1.83.01
#
DISCID=c309440e
DTITLE=Tom Jones - for dancing
DYEAR=1900
DGENRE=
TTITLE0=It's not unusual
TTITLE1=Love me tonight
TTITLE2=She's a Lady
TTITLE3=Green, green grass of home
TTITLE4=Memphis Tennessee
TTITLE5=Riders in the sky
TTITLE6=Funny familiar forgotten feelings
TTITLE7=Kansas City
TTITLE8=What's new pussycat?
TTITLE9=Delilah
TTITLE10=Detroit City
TTITLE11=Help yourself
TTITLE12=Not reponsible
TTITLE13=When I fall in love
EXTD=
EXTT0=
EXTT1=
EXTT2=
EXTT3=
EXTT4=
EXTT5=
EXTT6=
EXTT7=
EXTT8=
EXTT9=
EXTT10=
EXTT11=
EXTT12=
EXTT13=
PLAYORDER=
